<?xml version="1.0" encoding="utf-8"?><!-- Uploaded to: SVG Repo, www.svgrepo.com, Generator: SVG Repo Mixer Tools -->
<svg fill="#000000" width="800px" height="800px" viewBox="0 0 24 24" xmlns="http://www.w3.org/2000/svg" id="maximize-size" class="icon glyph"><path d="M5.41,4H8A1,1,0,0,0,8,2H4A2,2,0,0,0,2,4V8A1,1,0,0,0,4,8V5.41l4.29,4.3a1,1,0,0,0,1.42,0,1,1,0,0,0,0-1.42Z"></path><path d="M20,2H16a1,1,0,0,0,0,2h2.59l-4.3,4.29a1,1,0,0,0,0,1.42,1,1,0,0,0,1.42,0L20,5.41V8a1,1,0,0,0,2,0V4A2,2,0,0,0,20,2Z"></path><path d="M8.29,14.29,4,18.59V16a1,1,0,0,0-2,0v4a2,2,0,0,0,2,2H8a1,1,0,0,0,0-2H5.41l4.3-4.29a1,1,0,0,0-1.42-1.42Z"></path><path d="M21,15a1,1,0,0,0-1,1v2.59l-4.29-4.3a1,1,0,0,0-1.42,1.42L18.59,20H16a1,1,0,0,0,0,2h4a2,2,0,0,0,2-2V16A1,1,0,0,0,21,15Z"></path></svg>